<?xml version="1.0" encoding="UTF-8" standalone="no"?>
<!-- Created with Inkscape (http://www.inkscape.org/) -->

<svg
   width="86.355019mm"
   height="50.173603mm"
   viewBox="0 0 86.355021 50.173603"
   version="1.1"
   id="svg1"
   xmlns="http://www.w3.org/2000/svg"
   xmlns:svg="http://www.w3.org/2000/svg">
  <defs
     id="defs1" />
  <g
     id="layer1"
     transform="translate(-0.63261662,-0.07285687)">
    <path
       style="font-weight:bold;font-stretch:semi-condensed;font-size:46.9388px;font-family:'DejaVu Sans';-inkscape-font-specification:'DejaVu Sans Bold Semi-Condensed';letter-spacing:-2.11667px;stroke-width:3.91156"
       d="m 13.392548,13.939784 q 1.879385,0 2.841997,-0.916774 0.985532,-0.916773 0.985532,-2.704481 0,-1.7647894 -0.985532,-2.6815628 Q 15.271933,6.6972734 13.392548,6.6972734 H 9.0149545 V 13.939784 Z M 13.66758,28.90611 q 2.40653,0 3.598336,-1.123047 1.214724,-1.123048 1.214724,-3.392062 0,-2.223176 -1.214724,-3.323304 Q 16.07411,19.94465 13.66758,19.94465 H 9.0149545 v 8.96146 z m 7.380026,-12.307683 q 2.566966,0.825096 3.965045,3.048271 1.39808,2.223176 1.39808,5.454802 0,4.950577 -3.025353,7.380027 -3.002433,2.429449 -9.144815,2.429449 H 1.0619448 V 0.69240726 H 12.98 q 6.417414,0 9.282331,2.15441764 2.887836,2.1544176 2.887836,6.8987202 0,2.4982079 -1.054289,4.2629969 -1.03137,1.741869 -3.048272,2.589885 z m 22.40702,-2.658643 q 1.879386,0 2.841998,-0.916774 0.985531,-0.916773 0.985531,-2.704481 0,-1.7647894 -0.985531,-2.6815628 -0.962612,-0.9396928 -2.841998,-0.9396928 h -4.377593 v 7.2425106 z m 0.275032,14.966326 q 2.406531,0 3.598336,-1.123047 1.214725,-1.123048 1.214725,-3.392062 0,-2.223176 -1.214725,-3.323304 -1.191805,-1.123047 -3.598336,-1.123047 h -4.652625 v 8.96146 z m 7.380027,-12.307683 q 2.566965,0.825096 3.965045,3.048271 1.398079,2.223176 1.398079,5.454802 0,4.950577 -3.025352,7.380027 -3.002433,2.429449 -9.144815,2.429449 H 31.124023 V 0.69240726 h 11.918055 q 6.417414,0 9.282331,2.15441764 2.887837,2.1544176 2.887837,6.8987202 0,2.4982079 -1.05429,4.2629969 -1.03137,1.741869 -3.048271,2.589885 z m 22.40702,-2.658643 q 1.879385,0 2.841997,-0.916774 0.985532,-0.916773 0.985532,-2.704481 0,-1.7647894 -0.985532,-2.6815628 Q 75.39609,6.6972734 73.516705,6.6972734 h -4.377594 v 7.2425106 z m 0.275032,14.966326 q 2.40653,0 3.598336,-1.123047 1.214724,-1.123048 1.214724,-3.392062 0,-2.223176 -1.214724,-3.323304 -1.191806,-1.123047 -3.598336,-1.123047 h -4.652626 v 8.96146 z m 7.380026,-12.307683 q 2.566966,0.825096 3.965045,3.048271 1.39808,2.223176 1.39808,5.454802 0,4.950577 -3.025353,7.380027 -3.002433,2.429449 -9.144815,2.429449 H 61.186102 V 0.69240726 h 11.918055 q 6.417414,0 9.282331,2.15441764 2.887836,2.1544176 2.887836,6.8987202 0,2.4982079 -1.054289,4.2629969 -1.03137,1.741869 -3.048272,2.589885 z"
       id="text1"
       aria-label="BBB" />
    <path
       d="M 6.1373556,42.896287 V 47.419 h 1.9761029 q 1.4552054,0 2.0753215,-0.504361 0.620116,-0.51263 0.620116,-1.678448 0,-1.207159 -0.653189,-1.769397 -0.6531888,-0.570507 -2.0422485,-0.570507 z m 0,-5.076683 V 41.5403 h 1.94303 q 1.2071591,0 1.7445929,-0.46302 0.5457025,-0.46302 0.5457025,-1.496546 0,-0.934308 -0.5374343,-1.347719 Q 9.3040811,37.819604 8.0803856,37.819604 Z M 4.4589084,36.447081 h 3.6545501 q 1.8934205,0 2.9186795,0.818553 1.025258,0.818553 1.025258,2.3151 0,1.132745 -0.545702,1.785934 -0.537434,0.653189 -1.6205698,0.818553 1.2154278,0.181901 1.9016888,1.041795 0.69453,0.851626 0.69453,2.17454 0,1.678447 -1.099672,2.538341 -1.099673,0.851626 -3.2742125,0.851626 H 4.4589084 Z m 26.6154026,1.471742 -1.761129,6.316915 h 3.522258 z m -1.008722,-1.471742 h 2.025712 l 3.778573,12.344442 h -1.728056 l -0.909504,-3.216335 h -4.324275 l -0.892967,3.216335 h -1.728056 z m 19.959491,0 h 2.116663 l 4.167179,10.161634 V 36.447081 h 1.612301 V 48.791523 H 55.804561 L 51.637382,38.629889 V 48.791523 H 50.02508 Z m 22.87817,0 h 1.678448 v 5.490093 l 5.217242,-5.490093 h 1.959566 l -4.803831,5.04361 4.944391,7.300832 h -2.017444 l -4.02662,-6.184623 -1.273304,1.355987 v 4.828636 H 72.90325 Z"
       id="text2"
       style="font-size:16.9333px;line-height:0;font-family:'DejaVu Sans Mono';-inkscape-font-specification:'DejaVu Sans Mono';letter-spacing:12.7px;stroke-width:0.264583"
       aria-label="BANK" />
  </g>
</svg>
